<svg preserveAspectRatio="none" width="100%" height="100%" overflow="visible" style="display: block;" viewBox="0 0 20 20" fill="none" xmlns="http://www.w3.org/2000/svg">
<g id="Icon wrapper">
<path id="Left icon" d="M9.62494 2.33301C12.1791 2.33301 14.2498 4.40384 14.2499 6.95801C14.2499 8.36761 13.6185 9.62923 12.624 10.4775L13.5683 15.793L13.5693 15.7988C13.6016 15.9909 13.5748 16.1889 13.4921 16.3652C13.4092 16.5416 13.2739 16.6892 13.1054 16.7871C12.9367 16.8849 12.7412 16.9288 12.5468 16.9131C12.3613 16.898 12.1849 16.8286 12.038 16.7148V16.7158L9.65228 14.9258L9.62689 14.917C9.61806 14.9171 9.60957 14.9205 9.60248 14.9258L9.6015 14.9248L7.21185 16.7158L7.21088 16.7139C7.06415 16.8272 6.88825 16.8981 6.70306 16.9131C6.50915 16.9286 6.31482 16.8845 6.14642 16.7871C5.9779 16.6895 5.84283 16.5423 5.7597 16.3662C5.67667 16.19 5.64868 15.9919 5.6806 15.7998L5.68158 15.7939L6.62494 10.4775C5.63077 9.62923 4.99994 8.36735 4.99994 6.95801C5.00011 4.40384 7.07073 2.33301 9.62494 2.33301ZM11.4804 11.1934C10.9122 11.4427 10.2852 11.583 9.62494 11.583C8.96402 11.583 8.33618 11.4431 7.76752 11.1934L7.04193 15.2803L8.85345 13.9248L8.85443 13.9238C9.0775 13.7573 9.34852 13.6671 9.62689 13.667C9.87076 13.667 10.1091 13.7362 10.3144 13.8652L10.4003 13.9238L10.4013 13.9248L12.207 15.2803L11.4804 11.1934ZM9.62494 3.58301C7.76109 3.58301 6.25011 5.0942 6.24994 6.95801C6.24994 8.82197 7.76098 10.333 9.62494 10.333C11.4889 10.333 12.9999 8.82197 12.9999 6.95801C12.9998 5.0942 11.4888 3.58301 9.62494 3.58301Z" fill="var(--fill-0, #404040)"/>
</g>
</svg>
