<svg preserveAspectRatio="none" width="100%" height="100%" overflow="visible" style="display: block;" viewBox="0 0 20 20" fill="none" xmlns="http://www.w3.org/2000/svg">
<g id="Icon wrapper">
<path id="Left icon" d="M9.76112 2.34277C9.89542 2.36165 10.0249 2.40843 10.141 2.48047C10.257 2.55253 10.3565 2.64779 10.433 2.75977L10.5023 2.87695V2.87793L12.0424 5.99707L12.0892 6.08008C12.1415 6.15984 12.208 6.22972 12.2855 6.28613C12.389 6.36134 12.5096 6.41014 12.6361 6.42871L16.0795 6.93262H16.0785C16.2589 6.95881 16.4292 7.03493 16.5687 7.15234C16.6733 7.24044 16.7582 7.34973 16.8178 7.47168L16.8685 7.59863L16.9017 7.73047C16.9254 7.86411 16.9207 8.00201 16.8881 8.13477C16.8553 8.26761 16.7954 8.39256 16.7123 8.5L16.6215 8.60156L14.1303 11.0264L14.1312 11.0273C14.0396 11.1166 13.9707 11.227 13.931 11.3486C13.8915 11.4702 13.8823 11.5996 13.9037 11.7256L14.4916 15.1523H14.4906C14.5217 15.3318 14.5021 15.5166 14.434 15.6855C14.3653 15.8554 14.2501 16.0036 14.1019 16.1113C13.9537 16.2189 13.7778 16.2821 13.5951 16.2949C13.4132 16.3076 13.2318 16.2687 13.0707 16.1836V16.1846L9.99159 14.5654V14.5664C9.87863 14.5071 9.75294 14.4757 9.62538 14.4756C9.49768 14.4756 9.37129 14.5071 9.25819 14.5664L9.25722 14.5654L6.18104 16.1826L6.18202 16.1836C6.02031 16.2692 5.83719 16.3078 5.65468 16.2949C5.47215 16.2819 5.29684 16.2179 5.14882 16.1104C5.00073 16.0027 4.88541 15.8553 4.81679 15.6855C4.74834 15.516 4.72864 15.3305 4.76015 15.1504L5.34706 11.7266C5.36862 11.6004 5.35928 11.4703 5.31972 11.3486C5.28009 11.2269 5.21122 11.1166 5.11952 11.0273L2.62929 8.60254L2.63026 8.60156C2.49948 8.47462 2.40592 8.31454 2.36171 8.1377C2.31744 7.96002 2.32376 7.77281 2.38026 7.59863L2.43104 7.47168C2.49079 7.34926 2.576 7.23967 2.68104 7.15137L2.79237 7.07129C2.86948 7.02314 2.95304 6.98508 3.04042 6.95996L3.17421 6.93164L6.61464 6.42871L6.70839 6.40918C6.80026 6.38411 6.88774 6.34241 6.96522 6.28613C7.06842 6.21103 7.15182 6.11149 7.20839 5.99707L8.74843 2.87793V2.87695C8.82925 2.71402 8.95431 2.57649 9.10878 2.48047C9.26361 2.38445 9.44319 2.33301 9.62538 2.33301L9.76112 2.34277ZM8.32948 6.55078C8.18317 6.84691 7.96679 7.10367 7.6996 7.29785C7.43234 7.49195 7.12118 7.61742 6.79433 7.66504L3.89393 8.08887L5.99159 10.1318C6.2285 10.3625 6.40585 10.6475 6.50819 10.9619C6.61045 11.2764 6.63529 11.6116 6.57948 11.9375L6.08436 14.8223L8.67616 13.459H8.67714C8.96939 13.3057 9.29536 13.2256 9.62538 13.2256C9.87292 13.2257 10.1178 13.2711 10.348 13.3584L10.5736 13.459L13.1664 14.8223L12.6713 11.9365C12.6157 11.6108 12.6403 11.2762 12.7426 10.9619C12.8449 10.6478 13.0216 10.3624 13.2582 10.1318L15.3539 8.08984L12.4545 7.66602C12.1279 7.61808 11.8181 7.49096 11.5512 7.29688C11.3509 7.15122 11.1793 6.97068 11.0443 6.76465L10.9213 6.55078L9.62538 3.92578L8.32948 6.55078Z" fill="var(--fill-0, #404040)"/>
</g>
</svg>
