<svg preserveAspectRatio="none" width="100%" height="100%" overflow="visible" style="display: block;" viewBox="0 0 20 20" fill="none" xmlns="http://www.w3.org/2000/svg">
<g id="Icon wrapper">
<path id="Left icon" d="M14.2919 3C15.3732 3.00018 16.2498 3.87671 16.2499 4.95801V14.292C16.2498 15.3733 15.3732 16.2498 14.2919 16.25H4.95795C3.87665 16.2498 3.00011 15.3733 2.99994 14.292V4.95801C3.00011 3.87671 3.87665 3.00018 4.95795 3H14.2919ZM8.24994 15H14.2919C14.6829 14.9998 14.9998 14.6829 14.9999 14.292V8.25H8.24994V15ZM4.24994 14.292C4.25011 14.6829 4.567 14.9998 4.95795 15H6.99994V8.25H4.24994V14.292ZM4.95795 4.25C4.567 4.25018 4.25011 4.56706 4.24994 4.95801V7H14.9999V4.95801C14.9998 4.56706 14.6829 4.25018 14.2919 4.25H4.95795Z" fill="var(--fill-0, #404040)"/>
</g>
</svg>
