<svg preserveAspectRatio="none" width="100%" height="100%" overflow="visible" style="display: block;" viewBox="0 0 27 30" fill="none" xmlns="http://www.w3.org/2000/svg">
<path id="Vector" d="M11.1897 26.8333C11.4238 27.2387 11.7604 27.5753 12.1658 27.8093C12.5711 28.0433 13.031 28.1666 13.499 28.1666C13.9671 28.1666 14.4269 28.0433 14.8323 27.8093C15.2377 27.5753 15.5743 27.2387 15.8084 26.8333M1.84836 19.268C1.67418 19.4589 1.55923 19.6963 1.5175 19.9514C1.47577 20.2064 1.50905 20.4681 1.6133 20.7045C1.71755 20.941 1.88827 21.1421 2.1047 21.2833C2.32113 21.4245 2.57393 21.4998 2.83236 21.5H24.1657C24.4241 21.5001 24.677 21.4251 24.8935 21.2841C25.1101 21.1432 25.281 20.9423 25.3855 20.706C25.4901 20.4697 25.5237 20.2081 25.4823 19.9531C25.4409 19.698 25.3263 19.4605 25.1524 19.2693C23.379 17.4413 21.499 15.4987 21.499 9.5C21.499 7.37827 20.6562 5.34344 19.1559 3.84315C17.6556 2.34285 15.6208 1.5 13.499 1.5C11.3773 1.5 9.34246 2.34285 7.84217 3.84315C6.34188 5.34344 5.49903 7.37827 5.49903 9.5C5.49903 15.4987 3.61769 17.4413 1.84836 19.268Z" stroke="var(--stroke-0, black)" stroke-width="3" stroke-linecap="round" stroke-linejoin="round"/>
</svg>
