<svg preserveAspectRatio="none" width="100%" height="100%" overflow="visible" style="display: block;" viewBox="0 0 20 20" fill="none" xmlns="http://www.w3.org/2000/svg">
<g id="Icon wrapper">
<path id="Left icon" d="M9.62494 2.33496C9.96756 2.33496 10.3035 2.42591 10.6005 2.59668L10.6015 2.5957L15.2685 5.2627L15.2704 5.26367C15.5677 5.43533 15.8154 5.68232 15.9872 5.97949C16.159 6.27677 16.2496 6.61466 16.2499 6.95801V12.293C16.2495 12.6361 16.1589 12.9734 15.9872 13.2705C15.8154 13.5677 15.5678 13.8147 15.2704 13.9863L15.2685 13.9883L10.6035 16.6523C10.31 16.8217 9.97818 16.9125 9.63959 16.915C9.6347 16.9152 9.62985 16.917 9.62494 16.917C9.6197 16.917 9.61452 16.9152 9.60931 16.915C9.27099 16.9123 8.93861 16.8226 8.64545 16.6533V16.6523L3.98138 13.9883L3.97943 13.9863C3.68209 13.8147 3.43449 13.5677 3.26263 13.2705C3.09094 12.9734 3.00041 12.6361 2.99994 12.293V6.95801L3.00385 6.8291C3.02383 6.53063 3.11239 6.23949 3.26263 5.97949C3.43447 5.68232 3.68215 5.43533 3.97943 5.26367L3.98138 5.2627L8.64838 2.5957V2.59668C8.94554 2.42564 9.28204 2.33496 9.62494 2.33496ZM4.24994 12.291L4.2558 12.3838C4.268 12.4755 4.29807 12.5649 4.34467 12.6455C4.40631 12.752 4.49525 12.8404 4.6015 12.9023L8.99994 15.415V9.98633L4.24994 7.25977V12.291ZM12.9218 8.45215C12.9129 8.45695 12.9045 8.46244 12.8954 8.4668L10.2499 9.98633V15.415L14.6484 12.9023C14.7546 12.8404 14.8436 12.752 14.9052 12.6455C14.9672 12.5382 14.9996 12.4159 14.9999 12.292V7.25977L12.9218 8.45215ZM4.88568 6.18359L9.62494 8.90332L11.3652 7.90332L6.62396 5.19043L4.88568 6.18359ZM9.62494 3.58496C9.5006 3.58496 9.37813 3.61752 9.27045 3.67969L9.26849 3.68164L7.88275 4.47168L12.621 7.18262L14.3622 6.18359L9.98138 3.68164L9.97943 3.67969C9.87175 3.61752 9.74928 3.58496 9.62494 3.58496Z" fill="var(--fill-0, #404040)"/>
</g>
</svg>
