<svg preserveAspectRatio="none" width="100%" height="100%" overflow="visible" style="display: block;" viewBox="0 0 20 20" fill="none" xmlns="http://www.w3.org/2000/svg">
<g id="Icon wrapper">
<path id="Left icon" d="M3.91196 3C4.05049 2.99376 4.18896 3.01913 4.31821 3.07226L4.31918 3.07129L4.32309 3.07324C4.32418 3.07359 4.32601 3.0738 4.327 3.07422L4.32602 3.07519L14.9862 7.40429C15.1259 7.46128 15.2504 7.55024 15.3485 7.66308L15.4373 7.78418L15.5067 7.91699C15.5651 8.05455 15.5909 8.20496 15.5809 8.35547C15.5675 8.55622 15.4914 8.74833 15.3631 8.90332C15.2348 9.05821 15.0607 9.16906 14.8661 9.21972H14.8641L11.0799 10.1953L14.7332 13.8496C14.9773 14.0937 14.9773 14.4893 14.7332 14.7334C14.4892 14.9774 14.0935 14.9775 13.8495 14.7334L10.1952 11.0801L9.21957 14.8652L9.2186 14.8701C9.16679 15.0637 9.05509 15.2361 8.90024 15.3633C8.74536 15.4904 8.55429 15.566 8.35434 15.5791C8.15449 15.5921 7.95509 15.5423 7.785 15.4365C7.61516 15.3308 7.48273 15.1741 7.4061 14.9893L7.40414 14.9853L3.07114 4.31933L3.07211 4.31836C3.00098 4.1453 2.98055 3.95523 3.01645 3.77148L3.05454 3.63476C3.10193 3.50162 3.17838 3.38007 3.27914 3.27929C3.41357 3.14487 3.58478 3.05314 3.77133 3.0166L3.91196 3ZM8.22934 13.6963L9.05551 10.4971C9.13858 10.1545 9.31273 9.84086 9.55942 9.58886C9.56069 9.58756 9.56205 9.58625 9.56332 9.58496C9.56681 9.5813 9.56949 9.57684 9.57309 9.57324C9.57831 9.56802 9.58433 9.56359 9.58969 9.55859C9.83443 9.31927 10.1376 9.14809 10.4696 9.0625L13.6971 8.22949L4.48911 4.48925L8.22934 13.6963Z" fill="var(--fill-0, #404040)"/>
</g>
</svg>
