<svg preserveAspectRatio="none" width="100%" height="100%" overflow="visible" style="display: block;" viewBox="0 0 20 20" fill="none" xmlns="http://www.w3.org/2000/svg">
<g id="Icon wrapper">
<path id="Left icon" d="M9.62494 2.33301C9.97001 2.33301 10.2498 2.61298 10.2499 2.95801V3.7002C10.873 3.76593 11.4779 3.93062 12.0449 4.18262L12.4179 3.53906C12.5907 3.24039 12.9727 3.13785 13.2714 3.31055C13.5699 3.48326 13.6722 3.86539 13.4999 4.16406L13.1279 4.80664C13.3784 4.98874 13.6171 5.19036 13.8388 5.41211C14.0603 5.63367 14.2614 5.8718 14.4433 6.12207L15.0859 5.75098C15.3847 5.57836 15.7667 5.6807 15.9394 5.97949C16.1118 6.27827 16.0096 6.66035 15.7109 6.83301L15.0673 7.2041C15.3196 7.77126 15.484 8.37653 15.5497 9H16.291C16.6361 9 16.916 9.27982 16.916 9.625C16.916 9.97018 16.6361 10.25 16.291 10.25H15.5497C15.484 10.8734 15.3196 11.4787 15.0673 12.0459L15.7109 12.418C16.0095 12.5908 16.1121 12.9727 15.9394 13.2715C15.7667 13.5699 15.3846 13.6723 15.0859 13.5L14.4433 13.1279C14.2612 13.3784 14.0605 13.6172 13.8388 13.8389C13.6171 14.0606 13.3784 14.2613 13.1279 14.4434L13.4999 15.0859C13.6722 15.3846 13.5699 15.7667 13.2714 15.9395C12.9727 16.1122 12.5907 16.0096 12.4179 15.7109L12.0458 15.0674C11.4787 15.3196 10.8734 15.484 10.2499 15.5498V16.291C10.2499 16.6362 9.97012 16.916 9.62494 16.916C9.27976 16.916 8.99994 16.6362 8.99994 16.291V15.5498C8.37647 15.484 7.77119 15.3197 7.20404 15.0674L6.83295 15.7109C6.66037 16.0096 6.27826 16.1118 5.97943 15.9395C5.68057 15.7669 5.57838 15.3849 5.75092 15.0859L6.12103 14.4434C5.87099 14.2615 5.63342 14.0602 5.41205 13.8389C5.1903 13.6171 4.98868 13.3785 4.80658 13.1279L4.164 13.5C3.86533 13.6723 3.4832 13.5699 3.31049 13.2715C3.13779 12.9727 3.24033 12.5908 3.539 12.418L4.18256 12.0449C3.93057 11.478 3.76685 10.8731 3.70111 10.25H2.95795C2.61292 10.2498 2.33295 9.97007 2.33295 9.625C2.33295 9.27993 2.61292 9.00018 2.95795 9H3.70111C3.76685 8.37671 3.92943 7.77109 4.18158 7.2041L3.539 6.83301C3.24031 6.66035 3.13811 6.27827 3.31049 5.97949C3.4832 5.6807 3.86518 5.57837 4.164 5.75098L4.8056 6.12207C4.98776 5.87145 5.19021 5.63395 5.41205 5.41211C5.63356 5.1906 5.87082 4.98859 6.12103 4.80664L5.75092 4.16406C5.57839 3.86517 5.68061 3.48315 5.97943 3.31055C6.27828 3.13826 6.6604 3.24034 6.83295 3.53906L7.20404 4.18164C7.77106 3.92948 8.37662 3.76593 8.99994 3.7002V2.95801C9.00011 2.61298 9.27987 2.33301 9.62494 2.33301ZM11.4794 10.25C11.3837 10.5333 11.2251 10.7944 11.0097 11.0098C10.6425 11.3769 10.1442 11.5839 9.62494 11.584C9.4939 11.584 9.36385 11.5705 9.23724 11.5449L7.83197 13.9785C8.39307 14.2096 8.99872 14.332 9.61713 14.333H9.63177C10.8779 14.3311 12.0737 13.8364 12.955 12.9551C13.6893 12.2208 14.1546 11.268 14.291 10.25H11.4794ZM6.74994 5.89648C6.59097 6.01906 6.43932 6.15242 6.29584 6.2959C5.41293 7.17881 4.91702 8.37639 4.91693 9.625C4.91702 10.8736 5.41293 12.0722 6.29584 12.9551C6.43904 13.0982 6.59131 13.2302 6.74994 13.3525L8.15619 10.917C7.84273 10.5606 7.66701 10.1024 7.66693 9.625C7.66701 9.14736 7.84248 8.68847 8.15619 8.33203L6.74994 5.89648ZM9.62494 8.91699C9.4372 8.91708 9.25672 8.99126 9.12396 9.12402C8.9912 9.25679 8.91702 9.43726 8.91693 9.625C8.91702 9.81259 8.9914 9.99325 9.12396 10.126C9.25669 10.2585 9.43735 10.3339 9.62494 10.334C9.81268 10.3339 9.99315 10.2587 10.1259 10.126C10.2575 9.99437 10.3316 9.81586 10.3329 9.62988V9.62012C10.3317 9.43417 10.2574 9.25568 10.1259 9.12402C9.99319 8.99147 9.81253 8.91708 9.62494 8.91699ZM9.62494 4.91699C9.00425 4.91704 8.39603 5.03976 7.83295 5.27148L9.23822 7.70508C9.36451 7.67968 9.49423 7.66701 9.62494 7.66699C10.1441 7.66708 10.6426 7.87326 11.0097 8.24023C11.225 8.45564 11.3838 8.71662 11.4794 9H14.291C14.1546 7.9822 13.6891 7.03015 12.955 6.2959C12.0721 5.41299 10.8735 4.91708 9.62494 4.91699Z" fill="var(--fill-0, #404040)"/>
</g>
</svg>
