<svg preserveAspectRatio="none" width="100%" height="100%" overflow="visible" style="display: block;" viewBox="0 0 20 20" fill="none" xmlns="http://www.w3.org/2000/svg">
<g id="Icon wrapper">
<path id="Left icon" d="M14.9579 15.667C15.3031 15.667 15.5829 15.9468 15.5829 16.292V16.2988C15.5827 16.6438 15.303 16.9238 14.9579 16.9238C14.6131 16.9237 14.3332 16.6437 14.3329 16.2988V16.292C14.3329 15.9469 14.6129 15.6672 14.9579 15.667ZM14.9579 3.66699C15.4773 3.66699 15.9755 3.87308 16.3427 4.24023C16.7099 4.60742 16.9159 5.10573 16.916 5.625V8.625C16.9158 8.97003 16.636 9.25 16.291 9.25C15.9462 9.24965 15.6661 8.96981 15.666 8.625V7.42969L10.6464 10.6191L10.6435 10.6221C10.3384 10.8131 9.98492 10.914 9.62494 10.9141C9.26496 10.914 8.91148 10.8131 8.60638 10.6221L8.60248 10.6191L3.58295 7.42871V13.625C3.58313 14.0128 3.9032 14.3336 4.29095 14.334H12.6249C12.97 14.3342 13.2499 14.6139 13.2499 14.959C13.2496 15.3038 12.9698 15.5838 12.6249 15.584H4.29095C3.21285 15.5836 2.33312 14.7031 2.33295 13.625V5.625C2.33303 5.10589 2.53921 4.60739 2.90619 4.24023C3.27329 3.87313 3.77181 3.66716 4.29095 3.66699H14.9579ZM13.9453 10.5869C14.3372 10.3698 14.7898 10.2873 15.2333 10.3555C15.6891 10.4256 16.1074 10.6493 16.4189 10.9893C16.4326 11.0043 16.4457 11.0208 16.4579 11.0371C16.699 11.3586 16.9169 11.7556 16.9169 12.2783C16.9169 13.0457 16.3386 13.5423 15.9745 13.7881C15.7714 13.9252 15.5723 14.027 15.4267 14.0938C15.3533 14.1274 15.2912 14.153 15.246 14.1709C15.2235 14.1798 15.205 14.1873 15.1913 14.1924C15.1845 14.1949 15.1782 14.1967 15.1738 14.1982C15.1719 14.1989 15.1703 14.1997 15.1689 14.2002L15.166 14.2012H15.165C14.8392 14.3152 14.4822 14.1441 14.3681 13.8184C14.2541 13.4926 14.4261 13.1355 14.7519 13.0215C14.7528 13.0212 14.7543 13.021 14.7558 13.0205C14.7616 13.0183 14.7715 13.0142 14.7851 13.0088C14.8128 12.9978 14.8549 12.9806 14.9062 12.957C15.0106 12.9092 15.1452 12.8398 15.2753 12.752C15.5779 12.5477 15.6669 12.3776 15.6669 12.2783C15.6669 12.141 15.6197 12.0122 15.4775 11.8164C15.3605 11.697 15.2096 11.6164 15.0439 11.5908C14.8694 11.564 14.6909 11.5982 14.538 11.6865C14.5272 11.6928 14.516 11.6985 14.5048 11.7041C14.4124 11.7503 14.29 11.878 14.1835 12.0908C14.0292 12.3994 13.6543 12.5252 13.3456 12.3711C13.0369 12.2167 12.912 11.841 13.0663 11.5322C13.2224 11.2202 13.491 10.8294 13.912 10.6055V10.6035C13.9229 10.5972 13.9343 10.592 13.9453 10.5859V10.5869ZM4.29095 4.91699C4.10333 4.91716 3.92266 4.99134 3.78998 5.12402C3.65742 5.25675 3.58303 5.43741 3.58295 5.625V5.94824L9.27435 9.56445C9.37964 9.62933 9.50121 9.664 9.62494 9.66406C9.75015 9.664 9.87327 9.62889 9.97943 9.5625L15.666 5.94824V5.625C15.6659 5.43726 15.5917 5.25679 15.4589 5.12402C15.3261 4.99129 15.1457 4.91699 14.9579 4.91699H4.29095Z" fill="var(--fill-0, #404040)"/>
</g>
</svg>
